<svg version="1.1" id="Layer_1" xmlns="http://www.w3.org/2000/svg" xmlns:xlink="http://www.w3.org/1999/xlink" x="0px" y="0px"
	 width="100%" viewBox="0 0 50 50" enable-background="new 0 0 50 50" xml:space="preserve">
<path fill="#000000" opacity="1.000000" stroke="none" 
	d="
M37.017303,51.000000 
	C24.681440,51.000000 12.848447,51.000000 1.011590,51.000000 
	C1.007726,34.338966 1.007726,17.677925 1.003861,1.012665 
	C17.660557,1.008443 34.321121,1.008443 50.986259,1.004219 
	C50.990841,17.660078 50.990841,34.320164 50.990841,51.000000 
	C46.506737,51.000000 42.013454,51.000000 37.017303,51.000000 
M25.674244,17.221560 
	C31.672543,19.810631 35.865707,23.488857 33.238327,30.646879 
	C30.478151,29.602423 28.193455,29.772844 27.031208,33.930637 
	C26.934330,43.118752 28.811285,45.505859 38.640175,47.794537 
	C41.682175,47.400867 42.041527,45.316189 42.016720,42.765533 
	C41.942715,35.155048 42.226257,27.531092 41.830418,19.940546 
	C41.727409,17.965332 40.087414,15.469566 38.400158,14.293317 
	C33.826519,11.104867 28.807802,8.562650 24.046198,5.633134 
	C21.164881,3.860440 18.859083,3.843834 17.049540,8.025364 
	C17.004631,12.309554 16.959724,16.593744 16.258221,20.632246 
	C13.352915,19.250511 11.387455,20.247902 10.035134,23.937452 
	C10.505634,27.017048 9.978328,30.949947 11.698217,32.961090 
	C13.867157,35.497330 17.870129,36.465141 21.839294,37.939392 
	C22.888391,36.363632 24.722263,34.845272 24.842493,33.201565 
	C25.235844,27.823906 25.005365,22.400616 25.674244,17.221560 
z"/>
<path fill="#9D3845" opacity="1.000000" stroke="none" 
	d="
M21.081875,38.109589 
	C17.870129,36.465141 13.867157,35.497330 11.698217,32.961090 
	C9.978328,30.949947 10.505634,27.017048 10.395067,23.598930 
	C13.573849,24.445625 17.034344,27.289799 16.914816,20.877935 
	C16.959724,16.593744 17.004631,12.309554 17.401268,7.721433 
	C22.936836,10.386785 28.066631,13.456393 33.324257,16.288704 
	C36.615307,18.061609 38.112080,20.518879 38.022854,24.291960 
	C37.838463,32.088776 37.894192,39.891270 37.851158,47.691425 
	C28.811285,45.505859 26.934330,43.118752 27.399181,33.561535 
	C30.345032,33.824337 34.100212,37.578979 33.912586,30.875542 
	C35.865707,23.488857 31.672543,19.810631 25.167341,16.881477 
	C21.369762,13.925466 21.089970,16.398674 21.065716,18.785013 
	C21.000261,25.225819 21.067369,31.667971 21.081875,38.109589 
z"/>
<path fill="#711F31" opacity="1.000000" stroke="none" 
	d="
M38.245667,47.742981 
	C37.894192,39.891270 37.838463,32.088776 38.022854,24.291960 
	C38.112080,20.518879 36.615307,18.061609 33.324257,16.288704 
	C28.066631,13.456393 22.936836,10.386785 17.457935,7.268261 
	C18.859083,3.843834 21.164881,3.860440 24.046198,5.633134 
	C28.807802,8.562650 33.826519,11.104867 38.400158,14.293317 
	C40.087414,15.469566 41.727409,17.965332 41.830418,19.940546 
	C42.226257,27.531092 41.942715,35.155048 42.016720,42.765533 
	C42.041527,45.316189 41.682175,47.400867 38.245667,47.742981 
z"/>
<path fill="#711F31" opacity="1.000000" stroke="none" 
	d="
M21.460587,38.024490 
	C21.067369,31.667971 21.000261,25.225819 21.065716,18.785013 
	C21.089970,16.398674 21.369762,13.925466 24.837597,16.768135 
	C25.005365,22.400616 25.235844,27.823906 24.842493,33.201565 
	C24.722263,34.845272 22.888391,36.363632 21.460587,38.024490 
z"/>
<path fill="#732032" opacity="1.000000" stroke="none" 
	d="
M16.586517,20.755091 
	C17.034344,27.289799 13.573849,24.445625 10.445165,23.155716 
	C11.387455,20.247902 13.352915,19.250511 16.586517,20.755091 
z"/>
<path fill="#721F31" opacity="1.000000" stroke="none" 
	d="
M33.575455,30.761211 
	C34.100212,37.578979 30.345032,33.824337 27.444157,33.116726 
	C28.193455,29.772844 30.478151,29.602423 33.575455,30.761211 
z"/>
</svg>